<?xml version="1.0" standalone="no"?>
<!DOCTYPE svg PUBLIC "-//W3C//DTD SVG 20010904//EN"
 "http://www.w3.org/TR/2001/REC-SVG-20010904/DTD/svg10.dtd">
<svg version="1.0" xmlns="http://www.w3.org/2000/svg"
 width="512.000000pt" height="512.000000pt" viewBox="0 0 512.000000 512.000000"
 preserveAspectRatio="xMidYMid meet">
<metadata>
Created by potrace 1.11, written by Peter Selinger 2001-2013
</metadata>
<g transform="translate(0.000000,512.000000) scale(0.100000,-0.100000)"
fill="#000000" stroke="none">
<path d="M1004 5025 c-15 -23 -19 -47 -19 -112 0 -86 -14 -98 -22 -19 -3 25
-9 46 -13 46 -18 0 -50 -89 -52 -141 -1 -43 -2 -46 -5 -16 -2 20 -8 37 -13 37
-12 0 -33 -97 -33 -158 0 -48 -2 -53 -13 -37 -12 16 -13 16 -19 -7 -12 -46 14
-110 61 -156 25 -23 42 -47 39 -52 -3 -5 -1 -19 6 -31 10 -19 17 -21 60 -16
44 5 50 3 69 -20 l20 -26 -20 -14 c-41 -29 -11 -72 38 -55 28 10 31 7 153
-142 l124 -151 5 -860 5 -860 27 -95 c52 -186 119 -317 235 -468 l65 -83 -111
-220 c-61 -121 -111 -229 -111 -239 0 -59 76 23 228 248 46 67 85 122 87 122
2 0 37 -25 77 -56 100 -76 270 -158 393 -190 395 -101 835 32 1122 340 l70 75
78 -117 c109 -164 233 -330 255 -342 12 -6 21 -6 25 -1 11 19 -66 185 -207
445 l-70 128 50 107 c57 119 74 170 105 303 20 90 21 121 24 917 l4 824 135
164 135 164 -20 43 c-12 23 -21 50 -21 59 0 23 21 67 33 67 17 0 126 -70 157
-101 33 -33 38 -64 16 -95 -14 -18 -16 -18 -53 19 -21 20 -42 37 -46 37 -12 0
-8 -69 7 -103 20 -50 43 -67 87 -67 82 0 133 56 110 121 -15 43 -15 43 19 19
17 -12 30 -28 30 -35 0 -28 37 -37 98 -24 31 7 58 13 60 15 5 3 -30 108 -41
122 -5 7 -24 12 -41 10 -17 -1 -42 4 -56 12 l-25 13 40 11 c54 15 81 66 66
124 -15 54 -44 77 -95 76 -46 -1 -119 -31 -113 -47 1 -5 24 -15 50 -22 26 -7
50 -15 53 -18 12 -11 -45 -57 -71 -57 -20 0 -175 69 -194 86 -4 4 83 160 109
194 10 14 22 22 25 18 4 -3 -3 -16 -15 -28 -27 -27 -23 -50 12 -69 41 -23 78
-6 108 51 l25 47 -23 113 c-12 62 -23 124 -25 138 -2 17 -7 24 -17 21 -71 -21
-233 -81 -253 -93 -27 -18 -57 -75 -57 -107 0 -47 83 -85 96 -43 15 45 16 47
21 34 4 -11 -102 -212 -112 -212 -3 0 -28 14 -57 32 -124 75 -152 112 -124
165 l14 27 42 -42 c23 -23 44 -42 46 -42 2 0 4 21 4 48 0 86 -53 141 -124 128
-55 -10 -88 -44 -88 -89 0 -21 6 -44 12 -52 15 -18 9 -19 -23 -4 -13 6 -28 24
-35 41 -11 30 -12 31 -64 25 -106 -13 -99 -6 -79 -80 14 -49 50 -85 71 -72 13
8 70 -13 70 -26 0 -5 -11 -9 -25 -9 -73 0 -103 -113 -46 -171 22 -21 39 -29
66 -29 41 0 94 20 112 42 11 13 5 17 -42 27 -58 13 -67 27 -37 54 37 34 64 31
158 -18 49 -26 91 -48 93 -51 7 -7 -29 -53 -50 -65 -12 -6 -39 -12 -62 -14
l-40 -3 -43 -113 -42 -114 -1068 -2 -1069 -2 -86 121 -85 122 20 36 c11 20 17
44 13 53 -9 23 -44 21 -59 -3 -16 -26 -22 -25 -41 3 -14 22 -13 27 14 71 28
45 29 49 14 72 -17 26 -50 32 -59 12 -3 -7 -3 14 0 47 6 67 -4 103 -41 147
-14 17 -25 42 -25 59 0 16 -3 29 -6 29 -12 0 -33 -35 -34 -54 0 -31 -72 58
-91 112 l-16 47 -19 -30z m271 -422 c-33 -62 -125 -152 -184 -183 -77 -38
-131 -52 -148 -38 -22 18 -14 36 20 42 94 18 202 97 265 195 31 49 35 52 50
37 15 -15 15 -19 -3 -53z m77 -95 c7 -20 -32 -78 -89 -136 -50 -50 -157 -112
-195 -112 -38 0 -16 29 38 50 75 31 141 84 188 153 40 58 51 67 58 45z m-97
-24 c17 -26 17 -27 -30 -74 -26 -26 -65 -56 -87 -66 -40 -18 -41 -18 -59 5
-11 13 -19 26 -19 30 0 3 24 19 53 34 30 15 69 43 87 62 19 19 35 35 36 35 1
0 9 -12 19 -26z m145 -199 l72 -100 -53 -5 -54 -5 -5 -83 -5 -83 -102 125
c-57 69 -103 127 -103 130 0 2 19 15 43 29 23 14 60 44 82 66 21 23 42 38 46
33 4 -4 39 -52 79 -107z m2307 -1057 c-3 -901 -4 -936 -24 -1028 -26 -118 -64
-232 -102 -309 -88 -173 -254 -362 -408 -464 -343 -227 -773 -258 -1128 -79
-158 79 -349 249 -454 406 -103 152 -177 340 -200 510 -7 51 -11 394 -11 987
l0 909 1165 0 1166 0 -4 -932z m-16 -1781 c55 -109 99 -201 97 -203 -6 -6
-119 147 -227 308 l-92 138 27 35 27 36 34 -58 c18 -32 78 -147 134 -256z"/>
<path d="M1404 4125 c-4 -8 -4 -426 -1 -928 4 -762 8 -924 20 -983 101 -472
471 -844 924 -930 119 -22 344 -15 456 15 201 53 368 146 517 289 150 142 245
295 308 492 58 183 57 166 57 1150 l0 905 -1138 3 c-1007 2 -1138 0 -1143 -13z
m2165 -163 l44 -3 -33 -28 c-32 -26 -33 -29 -22 -61 7 -18 10 -35 8 -38 -3 -2
-18 6 -35 19 l-31 23 -30 -22 c-16 -12 -31 -22 -34 -22 -3 0 1 18 9 39 l13 39
-36 26 -37 26 48 0 c34 0 47 4 47 14 0 8 5 27 11 43 l11 28 12 -40 c11 -38 14
-40 55 -43z m-1926 -12 l41 0 -33 -28 c-33 -27 -34 -30 -23 -62 15 -42 8 -49
-21 -22 -28 27 -35 27 -67 2 -36 -28 -41 -25 -25 20 l14 40 -37 25 -37 25 47
0 c44 0 47 1 53 33 12 52 18 54 33 9 13 -40 15 -42 55 -42z m957 2 l43 -3 -33
-28 c-32 -26 -33 -29 -22 -61 15 -43 8 -49 -22 -21 -26 24 -54 23 -76 -4 -23
-27 -29 -15 -15 25 l14 40 -37 25 -37 25 47 0 c44 0 47 1 53 33 12 52 19 55
31 12 10 -38 13 -40 54 -43z m770 -856 c0 -685 -3 -726 -60 -874 -100 -260
-295 -437 -567 -514 -61 -17 -105 -22 -203 -22 -149 -1 -214 14 -345 79 -215
107 -380 310 -447 551 -22 77 -22 94 -26 742 l-3 662 825 0 826 0 0 -624z
m-1747 -16 l41 0 -33 -28 c-33 -27 -34 -30 -23 -62 15 -42 12 -45 -21 -19 -28
22 -56 19 -77 -6 -23 -27 -30 -15 -15 21 8 20 15 38 15 40 0 2 -17 15 -37 29
l-38 25 46 0 c45 0 46 1 59 43 l13 42 14 -42 c14 -41 16 -43 56 -43z m1913 23
c8 -36 12 -38 54 -43 l45 -5 -37 -23 -37 -23 15 -35 c19 -45 11 -54 -19 -26
-13 12 -29 22 -37 22 -8 0 -24 -10 -37 -22 -30 -28 -38 -19 -19 25 14 35 14
36 -20 59 l-34 23 43 5 c39 5 43 8 51 43 5 20 12 37 16 37 4 0 11 -17 16 -37z
m-36 -860 c0 -9 16 -13 47 -13 l48 0 -38 -25 c-20 -14 -37 -28 -37 -31 0 -2 7
-20 14 -39 17 -40 12 -43 -24 -15 -14 11 -29 20 -35 20 -5 0 -21 -9 -35 -20
-36 -28 -41 -25 -23 17 l15 38 -33 27 -33 28 41 0 c41 0 43 1 55 42 l12 41 13
-29 c6 -16 12 -35 13 -41z m-1880 16 c11 -40 12 -41 51 -37 47 4 50 -5 9 -29
-23 -13 -30 -23 -26 -38 3 -11 9 -31 13 -45 l7 -25 -36 27 -37 28 -29 -25
c-40 -34 -43 -32 -27 15 l14 39 -37 30 -37 31 43 -6 c42 -7 43 -7 59 35 9 22
17 41 19 41 2 0 8 -18 14 -41z m457 -586 c9 -37 11 -38 51 -37 23 0 42 -2 42
-5 0 -3 -16 -16 -35 -28 l-34 -23 15 -36 c8 -20 13 -38 11 -40 -3 -3 -18 7
-36 21 l-31 26 -35 -26 c-39 -31 -41 -29 -21 20 14 34 14 34 -22 65 l-37 31
45 -3 c44 -3 45 -2 54 35 5 20 13 37 17 37 4 0 11 -17 16 -37z m976 -43 l42
-1 -34 -28 c-32 -27 -33 -30 -22 -61 14 -42 7 -49 -22 -22 -29 28 -33 27 -74
-4 -38 -28 -39 -27 -18 23 8 19 15 37 15 39 0 2 -17 15 -37 29 l-38 25 46 0
c45 0 46 1 59 43 l13 42 14 -42 c14 -41 16 -43 56 -43z"/>
<path d="M1763 3674 c-2 -6 -2 -303 -1 -660 l3 -649 24 -70 c178 -531 737
-745 1179 -451 140 93 267 259 316 416 44 137 47 198 44 828 l-3 592 -779 3
c-550 1 -780 -1 -783 -9z m1554 -636 c-4 -682 -3 -677 -59 -818 -93 -234 -294
-412 -538 -477 -88 -23 -272 -23 -358 1 -289 79 -515 321 -576 619 -12 58 -16
138 -16 332 l0 255 50 0 51 0 -3 -37 c-3 -32 1 -40 32 -61 34 -23 39 -24 160
-18 69 3 137 8 153 12 24 6 27 3 27 -17 0 -13 3 -34 6 -47 l7 -23 22 21 c15
14 30 20 43 16 15 -5 21 -1 26 19 8 32 29 32 50 0 16 -25 39 -31 70 -19 20 8
21 24 1 24 -15 0 -22 40 -7 40 4 0 40 -34 80 -77 62 -67 70 -79 58 -91 -8 -8
-65 -23 -126 -33 -168 -28 -219 -46 -264 -90 -21 -22 -36 -45 -33 -51 19 -51
18 -58 -3 -58 -31 0 -81 -24 -112 -53 -51 -47 -28 -117 38 -117 38 0 52 14 28
28 -22 12 -12 39 21 54 32 15 37 9 23 -29 -10 -26 -9 -35 5 -57 23 -35 52 -34
55 1 2 31 28 63 51 63 9 0 31 -9 50 -21 30 -18 33 -23 26 -52 -4 -18 -11 -57
-14 -87 l-6 -55 -22 22 c-27 27 -79 38 -116 24 -28 -11 -28 -11 -10 -38 12
-18 18 -46 18 -88 l0 -60 47 3 c42 4 51 0 79 -27 17 -17 34 -31 39 -31 10 0
70 90 70 105 0 7 23 22 51 34 42 18 48 25 39 36 -18 21 -5 45 24 45 16 0 35
13 56 40 17 22 28 40 23 40 -5 0 -17 6 -27 13 -16 12 -17 17 -6 36 15 30 7 59
-30 106 -41 52 -36 67 30 83 88 22 108 25 133 19 21 -6 22 -12 23 -79 0 -64 7
-126 20 -166 3 -10 10 -9 30 4 22 15 27 15 36 3 5 -8 11 -10 14 -4 15 33 22
37 66 30 42 -6 46 -10 57 -45 15 -51 14 -95 -3 -109 -11 -9 -24 -7 -60 11
l-46 22 -30 -29 c-33 -32 -37 -47 -16 -64 13 -11 13 -17 0 -46 -20 -49 -19
-50 32 -53 33 -1 55 4 74 18 34 24 39 25 55 3 12 -16 14 -16 36 0 13 10 39 27
57 40 20 13 35 34 39 51 3 16 14 31 24 33 18 5 35 62 46 153 4 42 2 49 -47
110 -47 58 -52 68 -48 105 3 22 17 65 32 96 14 31 26 61 26 67 0 7 7 12 16 12
15 0 15 2 1 24 -14 20 -14 28 -2 62 19 54 19 61 -11 87 -14 12 -32 38 -40 57
-14 32 -14 36 2 45 9 6 30 21 45 33 39 32 40 84 4 108 -24 16 -26 15 -46 -10
-11 -14 -27 -26 -36 -26 -13 0 -14 8 -9 43 8 49 10 51 58 67 42 13 68 44 94
111 9 24 25 53 36 65 24 27 23 32 -6 27 -31 -6 -41 11 -22 39 22 32 20 38 -14
38 -21 0 -36 -9 -57 -35 -17 -21 -37 -35 -50 -35 -14 0 -24 -8 -29 -22 -4 -13
-18 -36 -31 -52 -19 -22 -23 -37 -19 -59 3 -16 0 -40 -9 -57 -8 -16 -15 -44
-15 -62 0 -23 -14 -50 -45 -92 -67 -89 -62 -134 25 -200 63 -49 83 -75 70 -95
-7 -12 -16 -7 -47 25 -23 23 -56 45 -80 52 -62 19 -73 34 -73 103 0 47 3 59
16 59 11 0 14 6 10 20 -3 11 -8 29 -11 39 -3 11 -1 22 5 26 5 3 10 16 10 28 0
13 14 33 34 49 18 15 37 40 41 55 3 15 16 38 27 50 17 18 19 32 16 90 -3 64
-2 68 20 71 26 4 29 24 6 43 -9 7 -13 21 -10 33 4 16 -27 87 -50 115 -2 2 -15
-4 -30 -14 -22 -14 -30 -15 -49 -5 -15 8 -28 9 -41 2 -13 -6 -36 -6 -70 1 -47
10 -55 8 -114 -21 -35 -18 -76 -32 -91 -32 -36 0 -41 -10 -33 -59 6 -38 9 -41
38 -42 l31 -1 -30 -13 c-16 -8 -39 -14 -49 -15 -25 0 -76 48 -76 72 0 27 -35
22 -59 -8 -29 -37 -27 -78 5 -103 21 -16 41 -21 91 -21 47 0 64 -3 60 -12 -2
-9 -19 -12 -50 -10 -31 3 -54 -2 -69 -12 l-22 -16 27 0 c15 0 27 -4 27 -10 0
-13 -74 -50 -101 -50 -30 0 -59 28 -59 57 0 13 -12 35 -27 48 -52 46 -68 63
-85 88 -16 24 -21 24 -95 20 -70 -4 -114 -7 -151 -11 -7 -1 -18 -13 -24 -27
-6 -14 -17 -25 -25 -25 -7 0 -40 -14 -73 -30 l-60 -30 0 185 0 185 776 0 775
0 -4 -632z m-562 452 c3 -5 2 -10 -4 -10 -5 0 -13 5 -16 10 -3 6 -2 10 4 10 5
0 13 -4 16 -10z m-48 -66 c-11 -11 -77 -22 -82 -14 -6 9 10 14 58 17 17 1 27
0 24 -3z m-765 -99 c34 -29 41 -30 58 -10 10 12 16 13 26 4 11 -9 14 -43 14
-138 l0 -126 -37 -13 c-21 -7 -58 -17 -83 -22 -25 -6 -55 -12 -68 -15 l-23 -6
3 158 3 158 35 17 c43 22 37 23 72 -7z m244 -14 c9 10 25 19 36 19 17 0 18
-11 18 -158 l0 -159 -82 5 c-46 3 -86 10 -90 16 -4 6 -8 65 -8 130 0 109 2
122 22 143 l21 23 33 -19 c32 -19 33 -19 50 0z m104 -175 c3 -92 3 -170 1
-172 -2 -2 -51 -4 -108 -4 l-103 0 0 26 0 27 68 -6 c37 -4 77 -9 90 -13 l23
-7 -1 154 c-2 186 -3 172 13 167 9 -3 13 -51 17 -172z m-471 -89 l1 -59 53 7
c28 3 60 9 70 11 12 4 17 0 17 -14 0 -24 -25 -32 -102 -32 l-58 0 2 173 c1
163 2 167 8 72 4 -55 8 -126 9 -158z m829 231 c-5 -16 -48 -24 -48 -10 0 11
17 20 38 21 8 1 12 -5 10 -11z"/>
<path d="M1929 3199 c-7 -18 -24 -45 -38 -62 l-25 -30 29 7 c42 11 76 12 103
2 21 -7 21 -5 -10 53 -18 33 -36 61 -39 61 -4 0 -12 -14 -20 -31z m27 -46
c-10 -10 -19 5 -10 18 6 11 8 11 12 0 2 -7 1 -15 -2 -18z"/>
<path d="M2120 3218 c-20 -11 -26 -22 -28 -61 -3 -41 -1 -47 17 -47 17 0 18 5
14 40 -5 35 -3 41 20 51 39 18 61 -4 54 -53 -4 -32 -2 -38 14 -38 16 0 19 7
19 44 0 24 -6 48 -13 55 -23 18 -70 22 -97 9z"/>
<path d="M4127 1450 c-34 -27 -57 -92 -65 -181 l-7 -74 -70 -53 c-138 -103
-386 -208 -580 -245 -160 -31 -139 -36 -182 46 -46 86 -79 109 -156 108 -29 0
-71 -7 -93 -15 -65 -23 -190 -45 -304 -55 -134 -11 -291 2 -434 35 -167 39
-178 41 -215 33 -52 -11 -83 -39 -121 -112 l-35 -66 -40 5 c-247 35 -492 130
-680 262 l-71 49 -11 91 c-12 92 -40 165 -68 176 -30 11 -67 6 -94 -13 -31
-22 -330 -352 -348 -384 -7 -12 -12 -41 -13 -64 0 -35 7 -50 49 -100 l49 -59
-33 -109 c-49 -161 -65 -247 -72 -370 -5 -99 -3 -116 16 -161 41 -94 110 -133
200 -113 65 14 327 164 377 215 60 61 89 160 31 106 -29 -27 -105 -62 -138
-62 -31 0 -39 15 -39 76 0 50 19 137 29 131 207 -114 536 -216 710 -220 l74
-2 34 80 c19 44 38 84 43 89 4 4 43 -3 87 -17 173 -57 420 -83 703 -74 209 7
354 27 473 63 45 14 91 28 103 30 18 5 25 -5 54 -73 47 -109 44 -106 116 -100
175 17 430 90 613 177 57 28 105 50 106 50 2 0 8 -29 15 -65 12 -66 8 -129
-11 -141 -19 -11 -75 6 -132 40 -56 34 -57 34 -57 12 0 -24 42 -87 81 -122 13
-12 90 -59 172 -104 131 -73 154 -83 210 -87 83 -6 122 15 162 88 28 50 30 61
30 154 -1 113 -19 215 -71 392 l-36 122 46 53 c93 105 87 121 -125 357 -152
169 -210 221 -247 221 -5 0 -21 -9 -35 -20z m-3124 -30 c17 -19 29 -52 37 -97
21 -117 15 -119 -78 -25 -45 45 -82 89 -82 96 0 16 57 56 82 56 9 0 27 -13 41
-30z m3213 9 c19 -11 34 -25 34 -30 0 -12 -160 -179 -171 -179 -11 0 -2 79 17
147 14 51 42 83 73 83 7 0 29 -9 47 -21z m-3274 -135 c46 -48 121 -115 168
-150 167 -126 423 -234 641 -272 54 -9 99 -20 99 -24 0 -5 -36 -81 -81 -170
-92 -183 -92 -183 -33 -280 20 -32 34 -61 32 -63 -7 -8 -198 24 -300 50 -330
84 -659 274 -839 486 -112 132 -112 129 79 343 81 90 148 165 149 165 2 1 40
-38 85 -85z m3447 -46 c66 -73 116 -134 111 -136 -5 -2 -50 16 -100 39 -49 23
-93 40 -96 37 -2 -3 7 -48 22 -101 36 -127 29 -141 -59 -116 -33 9 -36 12 -26
30 15 29 -13 69 -47 69 -15 0 -70 -29 -132 -70 -159 -104 -147 -93 -133 -118
13 -24 36 -31 27 -7 -3 8 2 22 11 30 14 15 17 14 28 -2 43 -63 66 -114 60
-133 -9 -27 3 -25 50 7 35 25 37 28 18 31 -14 2 -35 25 -62 67 -39 63 -39 65
-20 76 15 7 24 7 34 -1 8 -7 15 -7 19 -1 4 5 2 12 -4 16 -14 9 -13 25 3 25 6
0 32 -30 57 -66 36 -53 41 -67 30 -74 -8 -5 -11 -12 -7 -16 8 -9 87 42 87 57
0 6 -8 8 -19 4 -13 -4 -23 2 -35 21 -10 14 -16 27 -14 29 2 2 29 -3 60 -12
l56 -16 51 39 c52 41 63 57 34 52 -28 -5 -27 34 1 61 30 28 71 22 61 -10 -6
-18 9 -28 17 -11 2 4 15 17 29 30 l27 23 21 -34 c35 -57 28 -97 -27 -164 -199
-239 -517 -428 -867 -517 -107 -27 -285 -56 -298 -48 -5 2 -2 11 6 20 8 10 28
42 44 72 23 42 37 57 61 64 33 9 44 26 18 26 -9 0 -21 21 -30 52 -8 29 -14 53
-13 54 1 1 38 -20 81 -47 43 -26 82 -46 86 -44 4 2 -7 45 -24 95 -27 77 -29
92 -16 100 25 15 6 20 -33 8 -37 -11 -50 -28 -23 -28 13 0 51 -88 42 -97 -2
-2 -34 17 -72 42 -59 40 -71 45 -96 36 -32 -11 -28 -16 -79 90 l-37 76 102 17
c204 36 424 123 589 235 94 63 211 166 257 225 19 25 38 45 42 46 3 0 60 -60
127 -132z m-16 -132 c15 -11 15 -15 3 -25 -14 -12 -18 -9 -29 22 -8 20 1 21
26 3z m-2209 -101 c266 -72 535 -73 799 0 112 30 119 31 175 4 43 -21 46 -27
153 -243 60 -121 109 -223 109 -226 0 -3 -21 -6 -48 -7 -26 -1 -83 -15 -128
-31 -174 -65 -370 -92 -659 -92 -291 0 -483 26 -655 90 -47 17 -108 32 -136
33 l-50 2 99 205 c114 234 128 257 171 276 44 19 66 17 170 -11z m2036 -15 c0
-10 -6 -22 -13 -28 -10 -9 -17 -4 -30 18 -17 27 -16 29 0 39 21 11 43 -3 43
-29z m-3375 -331 c33 -26 84 -61 113 -79 39 -24 52 -37 47 -49 -39 -99 -26
-211 30 -260 l34 -30 -130 -71 c-141 -79 -190 -96 -243 -86 -152 29 -170 252
-51 643 l26 85 57 -54 c31 -30 84 -74 117 -99z m3730 -145 c52 -253 20 -393
-96 -424 -64 -17 -100 -5 -281 97 l-97 55 34 34 c20 20 37 48 41 69 6 35 1
137 -10 185 -6 22 2 30 73 75 44 27 120 84 168 126 l88 77 28 -87 c15 -47 39
-141 52 -207z m-1158 134 c10 -16 43 -119 42 -133 0 -14 -68 117 -69 133 0 6
4 12 9 12 6 0 13 -6 18 -12z m-1554 -148 c10 -8 -44 -141 -57 -143 -13 -3 -65
85 -72 121 -5 24 -2 31 12 35 24 7 106 -2 117 -13z m1555 14 c19 -6 22 -11 17
-33 -7 -27 -66 -131 -75 -131 -3 0 -19 34 -37 75 l-31 75 26 6 c15 3 32 7 37
9 17 6 39 5 63 -1z m671 -191 c20 -4 40 -6 44 -5 17 5 0 -22 -25 -41 -32 -24
-56 -13 -98 45 -39 54 -38 63 6 33 20 -13 52 -28 73 -32z m-2925 10 c-34 -45
-64 -72 -81 -73 -7 0 -24 11 -39 24 l-28 23 50 12 c28 7 64 21 80 31 44 28 49
24 18 -17z"/>
<path d="M815 1180 c8 -26 -79 -132 -106 -128 -10 2 -19 1 -21 -2 -7 -13 201
-182 215 -173 4 2 3 10 -2 17 -7 8 -4 15 9 23 15 10 24 8 47 -9 15 -12 29 -22
30 -23 1 0 0 -10 -3 -22 -4 -13 -11 -20 -20 -16 -8 3 -14 0 -14 -5 0 -18 181
-124 220 -129 46 -6 74 18 67 57 -4 19 0 29 14 38 43 27 19 72 -68 126 -51 31
-56 32 -48 6 7 -23 -61 -150 -81 -150 -31 0 -35 27 -18 124 9 52 14 99 12 104
-1 5 -41 -13 -88 -39 -46 -27 -96 -49 -110 -48 l-25 0 23 16 c30 21 28 34 -6
27 -21 -4 -36 0 -57 19 l-29 24 50 57 c39 46 53 56 71 51 33 -8 28 6 -17 43
-45 37 -54 40 -45 12z m176 -253 c-8 -8 -14 -8 -23 1 -9 9 -8 15 8 26 17 13
19 13 22 -1 2 -8 -1 -20 -7 -26z m224 -47 c22 -24 13 -50 -18 -50 -36 0 -49
18 -30 46 19 29 25 30 48 4z m-41 -79 c36 -40 -5 -80 -49 -47 -18 13 -18 17
-6 40 17 31 32 33 55 7z"/>
<path d="M1336 829 c-38 -11 -63 -35 -76 -74 -22 -66 32 -137 104 -137 44 0
72 16 91 52 20 39 19 79 -5 118 -11 17 -21 32 -22 32 -2 0 -17 4 -33 8 -17 5
-43 5 -59 1z m74 -39 c25 -25 25 -43 1 -97 -22 -48 -51 -62 -86 -39 -29 19
-33 61 -10 106 26 51 63 62 95 30z"/>
<path d="M1500 772 c0 -6 5 -12 10 -14 6 -2 0 -34 -16 -81 -20 -61 -30 -77
-45 -77 -31 0 -13 -17 36 -33 43 -15 72 -7 39 11 -14 8 -14 12 -1 43 l15 34
10 -25 c36 -92 40 -97 68 -103 38 -7 42 -2 18 26 -18 19 -44 69 -44 82 0 3 6
5 13 5 8 0 22 9 32 20 28 31 13 68 -38 90 -58 26 -97 34 -97 22z m95 -72 c0
-20 -6 -26 -27 -28 -32 -4 -32 -3 -18 33 13 34 45 30 45 -5z"/>
<path d="M3880 893 c0 -5 -15 -14 -33 -21 -45 -16 -64 -55 -42 -88 14 -22 38
-30 109 -36 39 -4 44 -23 12 -44 -24 -15 -28 -15 -52 1 -33 21 -37 17 -22 -23
11 -30 38 -45 38 -22 0 6 8 10 19 10 31 0 71 39 71 70 0 38 -23 54 -89 60 -48
4 -56 8 -56 25 0 27 40 32 66 9 26 -24 34 -12 15 24 -16 31 -36 50 -36 35z"/>
<path d="M3661 787 c-61 -30 -75 -113 -30 -171 44 -56 143 -40 176 29 43 90
-57 188 -146 142z m73 -33 c25 -24 37 -52 38 -84 1 -39 -18 -60 -53 -60 -22 0
-34 8 -49 33 -22 36 -26 97 -8 115 17 17 54 15 72 -4z"/>
<path d="M1930 861 c0 -5 5 -11 11 -13 9 -3 7 -26 -7 -83 -15 -65 -22 -79 -37
-77 -33 6 -16 -17 21 -27 117 -31 126 -32 145 -10 9 12 17 28 17 37 0 13 -2
13 -18 -1 -19 -17 -87 -24 -95 -9 -3 4 2 40 11 80 12 57 19 72 34 72 32 0 19
19 -19 29 -47 13 -63 14 -63 2z"/>
<path d="M3015 838 c-2 -7 -11 -49 -20 -93 -19 -87 -28 -105 -55 -105 -14 0
-20 15 -29 77 -10 68 -10 79 4 89 27 20 4 22 -100 8 -55 -8 -178 -14 -272 -14
l-173 -1 0 -29 c0 -32 14 -40 24 -15 3 8 15 15 27 15 19 0 21 -4 15 -37 -3
-21 -6 -57 -6 -80 0 -32 -4 -43 -15 -43 -8 0 -15 -4 -15 -10 0 -6 26 -10 58
-10 49 1 55 2 40 14 -14 11 -18 29 -18 90 0 70 2 76 21 76 12 0 23 -8 26 -20
8 -29 23 -25 23 6 0 16 5 24 13 22 8 -3 13 -31 15 -82 2 -66 0 -80 -15 -92
-16 -12 -11 -13 42 -13 59 -1 60 0 37 17 -21 16 -23 25 -20 92 2 48 7 75 16
78 7 2 12 -5 12 -17 0 -26 5 -26 31 0 12 12 25 17 29 13 4 -5 11 -41 14 -81 6
-62 5 -73 -11 -81 -31 -18 -5 -25 49 -15 43 9 49 12 31 18 -19 6 -23 15 -23
49 0 22 -3 58 -6 79 -6 33 -4 37 15 37 12 0 24 -7 27 -15 10 -24 24 -17 24 11
0 40 24 23 31 -22 20 -121 20 -124 4 -124 -8 0 -15 -4 -15 -10 0 -5 12 -10 27
-10 46 0 153 22 153 31 0 5 -7 9 -16 9 -11 0 -14 6 -8 23 3 12 7 23 8 24 0 0
17 4 36 8 29 5 37 2 48 -14 7 -13 8 -21 2 -21 -5 0 -10 -5 -10 -11 0 -12 62
-4 90 11 12 7 10 10 -10 18 -14 5 -50 44 -80 86 -54 76 -67 87 -75 64z m45
-99 c0 -4 -9 -9 -20 -12 -22 -6 -23 -3 -14 31 6 21 7 21 20 5 7 -10 14 -21 14
-24z"/>
<path d="M2180 811 c0 -5 6 -11 12 -13 15 -5 -83 -133 -114 -149 -27 -15 -6
-29 42 -29 30 1 33 2 18 13 -15 12 -15 15 1 36 23 31 55 25 59 -12 2 -19 -1
-27 -12 -27 -37 0 -12 -19 32 -25 26 -3 62 -7 80 -10 28 -3 34 0 48 27 20 38
11 48 -19 20 -42 -40 -87 -25 -80 26 6 37 25 42 50 13 23 -27 33 -17 33 30 0
21 5 39 10 39 6 0 10 11 10 25 0 28 -7 30 -107 40 -38 4 -63 2 -63 -4z m146
-42 c8 -14 -32 -51 -52 -47 -10 1 -17 6 -16 11 1 4 2 17 2 30 0 20 4 23 30 19
17 -2 33 -8 36 -13z m-114 -34 c-2 -14 -11 -25 -18 -25 -17 0 -17 5 -2 30 17
27 26 25 20 -5z"/>
</g>
</svg>
